<?xml version="1.0" encoding="iso-8859-1"?>
<!DOCTYPE svg PUBLIC "-//W3C//DTD SVG 1.1//EN" "http://www.w3.org/Graphics/SVG/1.1/DTD/svg11.dtd">
<svg version="1.1" id="Capa_1" xmlns="http://www.w3.org/2000/svg" xmlns:xlink="http://www.w3.org/1999/xlink" x="0px" y="0px"
	 width="47px" height="47px" viewBox="0 0 47 47" style="enable-background:new 0 0 47 47;" xml:space="preserve">
<g>
	<g>
		<path d="M35.517,16.514V9.597c0-5.294-4.304-9.596-9.595-9.597v1.666l-1.414,3.367c0.449-0.14,0.917-0.236,1.412-0.236
			c2.641,0,4.793,2.156,4.793,4.8v6.917h-4.791v2.094l1.938,1.896l-5.109,5.418l2.722,5.938l-1.847,2.869l6.352,2.614l-4.579,3.599
			l0.474,4.605h14.566V16.514H35.517z"/>
		<path d="M18.779,36.182l1.848-2.869l-2.722-5.938l5.109-5.418l-1.938-1.896v-2.093h-4.794v-6.917c0-2.149,1.429-3.955,3.38-4.563
			l1.414-3.368V1.453c0,0-0.001,0-0.002,0c-5.29,0-9.594,4.303-9.594,9.598v6.917h-4.92V47h14.467l-0.474-4.605l4.577-3.599
			L18.779,36.182z"/>
	</g>
</g>
</svg>
